<svg width="80" height="80" viewBox="0 0 80 80" fill="none" xmlns="http://www.w3.org/2000/svg">
<circle cx="40" cy="40" r="40" fill="#E9F3FF"/>
<path d="M27 47.5835C27 48.8433 27.5004 50.0515 28.3912 50.9423C29.282 51.8331 30.4902 52.3335 31.75 52.3335C33.0098 52.3335 34.218 51.8331 35.1088 50.9423C35.9996 50.0515 36.5 48.8433 36.5 47.5835C36.5 46.3237 35.9996 45.1155 35.1088 44.2247C34.218 43.3339 33.0098 42.8335 31.75 42.8335C30.4902 42.8335 29.282 43.3339 28.3912 44.2247C27.5004 45.1155 27 46.3237 27 47.5835ZM42.8333 47.5835C42.8333 48.8433 43.3338 50.0515 44.2246 50.9423C45.1154 51.8331 46.3236 52.3335 47.5833 52.3335C48.8431 52.3335 50.0513 51.8331 50.9421 50.9423C51.8329 50.0515 52.3333 48.8433 52.3333 47.5835C52.3333 46.3237 51.8329 45.1155 50.9421 44.2247C50.0513 43.3339 48.8431 42.8335 47.5833 42.8335C46.3236 42.8335 45.1154 43.3339 44.2246 44.2247C43.3338 45.1155 42.8333 46.3237 42.8333 47.5835Z" stroke="#3695FF" stroke-width="2.5" stroke-linecap="round" stroke-linejoin="round"/>
<path d="M36.5 47.5833V27H52.3333V47.5833M36.5 33.3333H52.3333" stroke="#3695FF" stroke-width="2.5" stroke-linecap="round" stroke-linejoin="round"/>
</svg>
