<svg width="50" height="50" viewBox="0 0 50 50" fill="none" xmlns="http://www.w3.org/2000/svg">
<circle cx="25" cy="25" r="25" fill="#FFECDC"/>
<path d="M31.25 25.5001C30.376 24.7676 29.265 24.3787 28.125 24.4064H20.7969C20.4627 24.4148 20.1304 24.3557 19.8196 24.2327C19.5088 24.1097 19.2261 23.9252 18.9883 23.6903C18.7505 23.4554 18.5626 23.175 18.4357 22.8658C18.3088 22.5566 18.2457 22.2249 18.25 21.8907C18.2418 21.7607 18.2418 21.6302 18.25 21.5001C18.3485 20.9029 18.6616 20.3623 19.1306 19.9796C19.5996 19.597 20.1921 19.3987 20.7969 19.422H28.0156C28.6045 19.4215 29.1743 19.6301 29.6236 20.0107C30.0729 20.3914 30.3724 20.9192 30.4687 21.5001H32.8125C32.7144 20.2953 32.1665 19.1716 31.2777 18.3523C30.3889 17.533 29.2244 17.0782 28.0156 17.0782H25.5469V13.4845H23.5937V17.0782H20.7969C19.5881 17.0782 18.4235 17.533 17.5348 18.3523C16.646 19.1716 16.0981 20.2953 16 21.5001C15.9922 21.6302 15.9922 21.7607 16 21.8907C16 22.5207 16.1241 23.1444 16.3651 23.7264C16.6062 24.3084 16.9595 24.8372 17.405 25.2826C18.3045 26.1822 19.5247 26.6876 20.7969 26.6876H28.2031C28.5346 26.6793 28.8644 26.7374 29.173 26.8585C29.4817 26.9796 29.763 27.1613 30.0004 27.3928C30.2377 27.6243 30.4263 27.901 30.5551 28.2066C30.6838 28.5122 30.7501 28.8404 30.75 29.172C30.7662 29.3487 30.7662 29.5265 30.75 29.7032C30.6259 30.253 30.3186 30.7443 29.8785 31.0963C29.4384 31.4484 28.8917 31.6404 28.3281 31.6407H20.9844C20.4208 31.6404 19.874 31.4484 19.4339 31.0963C18.9939 30.7443 18.6865 30.253 18.5625 29.7032H16.2031C16.3374 30.8772 16.8989 31.9608 17.7806 32.7474C18.6624 33.5341 19.8027 33.9689 20.9844 33.9689H23.5937V37.5157H25.5469V33.9689H28.2031C29.3848 33.9689 30.5251 33.5341 31.4068 32.7474C32.2886 31.9608 32.8501 30.8772 32.9844 29.7032V29.172C32.9825 28.4702 32.8261 27.7774 32.5264 27.1428C32.2266 26.5082 31.7909 25.9474 31.25 25.5001Z" fill="#FB923C"/>
</svg>
