<svg width="50" height="50" viewBox="0 0 50 50" fill="none" xmlns="http://www.w3.org/2000/svg">
<circle cx="25" cy="25" r="25" fill="#FEF5E9"/>
<path d="M27.2188 23.6875C27.7565 23.6875 28.2821 23.528 28.7292 23.2293C29.1763 22.9306 29.5248 22.506 29.7305 22.0092C29.9363 21.5124 29.9902 20.9657 29.8853 20.4383C29.7804 19.911 29.5214 19.4265 29.1412 19.0463C28.761 18.6661 28.2765 18.4071 27.7492 18.3022C27.2218 18.1973 26.6751 18.2512 26.1783 18.457C25.6815 18.6627 25.2569 19.0112 24.9582 19.4583C24.6595 19.9054 24.5 20.431 24.5 20.9688C24.5 21.6898 24.7864 22.3813 25.2963 22.8912C25.8062 23.4011 26.4977 23.6875 27.2188 23.6875ZM27.2188 20.0625C27.398 20.0625 27.5732 20.1157 27.7222 20.2152C27.8713 20.3148 27.9874 20.4563 28.056 20.6219C28.1246 20.7875 28.1426 20.9698 28.1076 21.1456C28.0726 21.3213 27.9863 21.4828 27.8596 21.6096C27.7328 21.7363 27.5713 21.8226 27.3956 21.8576C27.2198 21.8926 27.0375 21.8746 26.8719 21.806C26.7063 21.7374 26.5648 21.6213 26.4652 21.4722C26.3656 21.3232 26.3125 21.148 26.3125 20.9688C26.3125 20.7284 26.408 20.4979 26.5779 20.3279C26.7479 20.158 26.9784 20.0625 27.2188 20.0625Z" fill="#FF9B15"/>
<path d="M33.5625 14.625H15.4375C14.9568 14.625 14.4958 14.816 14.1559 15.1559C13.816 15.4958 13.625 15.9568 13.625 16.4375V34.5625C13.625 35.0432 13.816 35.5042 14.1559 35.8441C14.4958 36.184 14.9568 36.375 15.4375 36.375H33.5625C34.0432 36.375 34.5042 36.184 34.8441 35.8441C35.184 35.5042 35.375 35.0432 35.375 34.5625V16.4375C35.375 15.9568 35.184 15.4958 34.8441 15.1559C34.5042 14.816 34.0432 14.625 33.5625 14.625ZM33.5625 34.5625H15.4375V29.125L19.9688 24.5938L25.0347 29.6597C25.3743 29.9973 25.8337 30.1867 26.3125 30.1867C26.7913 30.1867 27.2507 29.9973 27.5903 29.6597L29.0312 28.2188L33.5625 32.75V34.5625ZM33.5625 30.1853L30.3091 26.9319C29.9695 26.5943 29.5101 26.4048 29.0312 26.4048C28.5524 26.4048 28.093 26.5943 27.7534 26.9319L26.3125 28.3728L21.2466 23.3069C20.907 22.9693 20.4476 22.7798 19.9688 22.7798C19.4899 22.7798 19.0305 22.9693 18.6909 23.3069L15.4375 26.5603V16.4375H33.5625V30.1853Z" fill="#FF9B15"/>
</svg>
