<svg width="80" height="80" viewBox="0 0 80 80" fill="none" xmlns="http://www.w3.org/2000/svg">
<circle cx="40" cy="40" r="40" fill="#FFEFFC"/>
<path d="M53.1167 56.625L41.8292 45.3375C40.9333 46.0542 39.9031 46.6215 38.7385 47.0396C37.574 47.4576 36.3347 47.6667 35.0208 47.6667C31.766 47.6667 29.0116 46.5391 26.7577 44.284C24.5037 42.0289 23.3762 39.2745 23.375 36.0208C23.375 32.766 24.5026 30.0116 26.7577 27.7577C29.0128 25.5037 31.7672 24.3762 35.0208 24.375C38.2757 24.375 41.0301 25.5026 43.284 27.7577C45.5379 30.0128 46.6655 32.7672 46.6667 36.0208C46.6667 37.3347 46.4576 38.574 46.0396 39.7385C45.6215 40.9031 45.0542 41.9333 44.3375 42.8292L55.625 54.1167L53.1167 56.625ZM35.0208 44.0833C37.2604 44.0833 39.1644 43.2992 40.7327 41.7309C42.301 40.1626 43.0845 38.2592 43.0833 36.0208C43.0833 33.7812 42.2992 31.8773 40.7309 30.309C39.1626 28.7407 37.2592 27.9571 35.0208 27.9583C32.7812 27.9583 30.8773 28.7425 29.309 30.3108C27.7407 31.8791 26.9571 33.7824 26.9583 36.0208C26.9583 38.2604 27.7425 40.1644 29.3108 41.7327C30.8791 43.301 32.7824 44.0845 35.0208 44.0833Z" fill="#FF64E0"/>
</svg>
