<svg width="50" height="50" viewBox="0 0 50 50" fill="none" xmlns="http://www.w3.org/2000/svg">
<circle cx="25" cy="25" r="25" fill="#EBE8FF"/>
<path fill-rule="evenodd" clip-rule="evenodd" d="M20.934 15H29.066C29.952 15 30.716 15 31.328 15.082C31.983 15.17 32.612 15.369 33.121 15.879C33.631 16.389 33.83 17.017 33.918 17.672C34 18.284 34 19.048 34 19.934V20.95C34 21.2152 33.8946 21.4696 33.7071 21.6571C33.5196 21.8446 33.2652 21.95 33 21.95C32.7348 21.95 32.4804 21.8446 32.2929 21.6571C32.1054 21.4696 32 21.2152 32 20.95V20C32 19.029 31.998 18.401 31.936 17.939C31.877 17.505 31.783 17.369 31.707 17.293C31.631 17.217 31.495 17.123 31.061 17.064C30.6 17.002 29.971 17 29 17H26V34C26 34.2652 25.8946 34.5196 25.7071 34.7071C25.5196 34.8946 25.2652 35 25 35C24.7348 35 24.4804 34.8946 24.2929 34.7071C24.1054 34.5196 24 34.2652 24 34V17H21C20.029 17 19.401 17.002 18.939 17.064C18.505 17.123 18.369 17.217 18.293 17.293C18.217 17.369 18.123 17.505 18.064 17.939C18.002 18.4 18 19.029 18 20V20.95C18 21.2152 17.8946 21.4696 17.7071 21.6571C17.5196 21.8446 17.2652 21.95 17 21.95C16.7348 21.95 16.4804 21.8446 16.2929 21.6571C16.1054 21.4696 16 21.2152 16 20.95V19.934C16 19.048 16 18.284 16.082 17.672C16.17 17.017 16.369 16.388 16.879 15.879C17.389 15.369 18.017 15.17 18.672 15.082C19.284 15 20.048 15 20.934 15Z" fill="#4E3EAD"/>
<path d="M20 34H30" stroke="#4E3EAD" stroke-width="2" stroke-linecap="round" stroke-linejoin="round"/>
</svg>
