<svg width="50" height="50" viewBox="0 0 50 50" fill="none" xmlns="http://www.w3.org/2000/svg">
<circle cx="25" cy="25" r="25" fill="#E3FFF5"/>
<path d="M24.9 35L29.45 23H31.55L36.1 35H34L32.95 31.95H28.1L27 35H24.9ZM28.7 30.2H32.3L30.55 25.25H30.45L28.7 30.2ZM17 32L15.6 30.6L20.65 25.55C20.0167 24.85 19.4623 24.125 18.987 23.375C18.5117 22.625 18.0993 21.8333 17.75 21H19.85C20.15 21.6 20.471 22.1417 20.813 22.625C21.155 23.1083 21.5673 23.6167 22.05 24.15C22.7833 23.35 23.3917 22.529 23.875 21.687C24.3583 20.845 24.7667 19.9493 25.1 19H14V17H21V15H23V17H30V19H27.1C26.75 20.1833 26.275 21.3333 25.675 22.45C25.075 23.5667 24.3333 24.6167 23.45 25.6L25.85 28.05L25.1 30.1L22 27L17 32Z" fill="#34D399"/>
</svg>
